<?xml version="1.0" encoding="UTF-8"?>
<svg xmlns="http://www.w3.org/2000/svg" xmlns:xlink="http://www.w3.org/1999/xlink" width="30px" height="30px" viewBox="0 0 30 30" version="1.1">
<g id="surface1">
<path style=" stroke:none;fill-rule:nonzero;fill:rgb(0%,0%,0%);fill-opacity:1;" d="M 3.90625 12.511719 L 3.90625 17.5 C 3.90625 18.183594 4.464844 18.746094 5.144531 18.746094 L 8.855469 18.746094 L 12.921875 22.84375 C 13.703125 23.628906 15.039062 23.070312 15.039062 21.960938 L 15.039062 8.039062 C 15.039062 6.929688 13.703125 6.371094 12.921875 7.15625 L 8.855469 11.265625 L 5.144531 11.265625 C 4.464844 11.265625 3.90625 11.828125 3.90625 12.511719 "/>
<path style=" stroke:none;fill-rule:nonzero;fill:rgb(0%,0%,0%);fill-opacity:1;" d="M 25.839844 10.601562 L 22.09375 6.828125 C 21.542969 6.273438 20.601562 6.660156 20.601562 7.445312 L 20.601562 12.878906 L 17.207031 9.457031 C 16.867188 9.113281 16.316406 9.113281 15.976562 9.457031 C 15.636719 9.800781 15.636719 10.355469 15.976562 10.695312 L 20.246094 14.996094 L 15.976562 19.296875 C 15.636719 19.640625 15.636719 20.195312 15.976562 20.535156 C 16.316406 20.878906 16.867188 20.878906 17.207031 20.535156 L 20.601562 17.117188 L 20.601562 22.550781 C 20.601562 23.332031 21.542969 23.726562 22.09375 23.175781 L 25.839844 19.394531 C 26 19.230469 26.09375 19.003906 26.09375 18.773438 C 26.09375 18.539062 26 18.316406 25.839844 18.152344 L 22.707031 14.996094 L 25.839844 11.847656 C 26.179688 11.507812 26.179688 10.941406 25.839844 10.601562 M 22.347656 9.570312 L 23.988281 11.222656 L 22.347656 12.878906 Z M 23.988281 18.769531 L 22.347656 20.421875 L 22.347656 17.117188 Z M 23.988281 18.769531 "/>
</g>
</svg>
